<?xml version="1.0" encoding="UTF-8"?>
<!DOCTYPE svg PUBLIC "-//W3C//DTD SVG 1.1//EN" "http://www.w3.org/Graphics/SVG/1.1/DTD/svg11.dtd">
<svg xmlns="http://www.w3.org/2000/svg" version="1.1" width="256px" height="256px" style="shape-rendering:geometricPrecision; text-rendering:geometricPrecision; image-rendering:optimizeQuality; fill-rule:evenodd; clip-rule:evenodd" xmlns:xlink="http://www.w3.org/1999/xlink">
<g><path style="opacity:0.986" fill="#c3272c" d="M 137.5,18.5 C 173.802,20.4602 191.136,39.4602 189.5,75.5C 178.631,66.3515 167.631,66.1848 156.5,75C 151.022,80.7809 148.522,87.6142 149,95.5C 153.331,108.822 157.665,122.155 162,135.5C 163.787,146.754 162.12,157.42 157,167.5C 155.647,168.685 154.48,170.019 153.5,171.5C 153.167,171.167 152.833,170.833 152.5,170.5C 156.683,160.936 156.183,151.602 151,142.5C 147.535,138.033 143.702,133.867 139.5,130C 125.829,121.004 113.329,110.504 102,98.5C 90.539,80.4072 89.539,61.7405 99,42.5C 108.179,28.4612 121.012,20.4612 137.5,18.5 Z"/></g>
<g><path style="opacity:0.984" fill="#651f14" d="M 93.5,106.5 C 95.9928,106.329 97.8261,107.329 99,109.5C 99.6667,116.5 99.6667,123.5 99,130.5C 98.0998,135.737 95.2664,139.571 90.5,142C 84.8333,142.667 79.1667,142.667 73.5,142C 70.6096,139.336 69.2763,136.003 69.5,132C 69.0572,119.445 75.0572,113.112 87.5,113C 89.7341,110.937 91.7341,108.771 93.5,106.5 Z M 79.5,122.5 C 83.2336,123.974 83.4002,125.64 80,127.5C 76.927,126.252 76.7603,124.585 79.5,122.5 Z"/></g>
<g><path style="opacity:0.995" fill="#651f14" d="M 114.5,130.5 C 134.794,129.138 146.461,138.471 149.5,158.5C 148.714,165.313 146.547,171.647 143,177.5C 138.203,181.817 132.703,184.984 126.5,187C 112.837,187.5 99.1707,187.667 85.5,187.5C 85.43,181.57 88.43,178.57 94.5,178.5C 94.8333,177.5 95.1667,176.5 95.5,175.5C 86.9479,153.749 93.2812,138.749 114.5,130.5 Z"/></g>
<g><path style="opacity:0.942" fill="#c1272b" d="M 80.5,146.5 C 85.7666,145.185 89.1,147.018 90.5,152C 88.7407,157.36 85.2407,158.86 80,156.5C 77.9908,153.05 78.1575,149.717 80.5,146.5 Z"/></g>
<g><path style="opacity:0.955" fill="#651e13" d="M 90.5,210.5 C 92.3904,210.297 93.8904,210.963 95,212.5C 95.6667,215.833 95.6667,219.167 95,222.5C 94.5348,223.931 93.7014,225.097 92.5,226C 93.448,226.483 94.448,226.649 95.5,226.5C 95.5,227.5 95.5,228.5 95.5,229.5C 91.243,228.621 87.0763,228.288 83,228.5C 82.3333,224.833 82.3333,221.167 83,217.5C 85.3959,214.933 87.8959,212.6 90.5,210.5 Z M 89.5,215.5 C 90.6935,215.97 91.3601,216.97 91.5,218.5C 91.3333,219.5 91.1667,220.5 91,221.5C 89.9887,220.663 88.8221,220.33 87.5,220.5C 87.6602,222.199 87.4935,223.866 87,225.5C 85.8613,221.579 86.6946,218.246 89.5,215.5 Z"/></g>
<g><path style="opacity:0.937" fill="#641e14" d="M 149.5,210.5 C 152.85,210.335 156.183,210.502 159.5,211C 161.444,213.153 161.944,215.653 161,218.5C 159.601,219.227 158.101,219.727 156.5,220C 159.278,222.603 160.944,225.77 161.5,229.5C 160.448,229.649 159.448,229.483 158.5,229C 156.667,226.5 154.833,224 153,221.5C 152.503,224.146 152.336,226.813 152.5,229.5C 151.5,229.5 150.5,229.5 149.5,229.5C 149.5,223.167 149.5,216.833 149.5,210.5 Z M 152.5,214.5 C 154.604,214.201 156.604,214.534 158.5,215.5C 157.5,215.833 156.5,216.167 155.5,216.5C 153.97,216.36 152.97,215.693 152.5,214.5 Z"/></g>
<g><path style="opacity:0.826" fill="#651e13" d="M 165.5,210.5 C 169.767,210.203 173.934,210.536 178,211.5C 178.617,212.449 178.451,213.282 177.5,214C 174.518,214.498 171.518,214.665 168.5,214.5C 168.5,215.833 168.5,217.167 168.5,218.5C 170.167,218.5 171.833,218.5 173.5,218.5C 173.5,219.5 173.5,220.5 173.5,221.5C 171.833,221.5 170.167,221.5 168.5,221.5C 168.5,223.167 168.5,224.833 168.5,226.5C 172.048,226.095 175.381,226.595 178.5,228C 174.365,229.431 170.032,229.931 165.5,229.5C 165.5,223.167 165.5,216.833 165.5,210.5 Z"/></g>
<g><path style="opacity:0.881" fill="#651f14" d="M 99.5,210.5 C 100.5,210.5 101.5,210.5 102.5,210.5C 102.334,215.511 102.501,220.511 103,225.5C 104.667,226.833 106.333,226.833 108,225.5C 108.499,220.511 108.666,215.511 108.5,210.5C 109.5,210.5 110.5,210.5 111.5,210.5C 111.666,216.509 111.499,222.509 111,228.5C 107.333,229.833 103.667,229.833 100,228.5C 99.5005,222.509 99.3338,216.509 99.5,210.5 Z"/></g>
<g><path style="opacity:0.904" fill="#651e13" d="M 116.5,210.5 C 120.182,210.335 123.848,210.501 127.5,211C 128.833,212 128.833,213 127.5,214C 126.207,214.49 124.873,214.657 123.5,214.5C 123.5,218.5 123.5,222.5 123.5,226.5C 125.167,226.5 126.833,226.5 128.5,226.5C 128.5,227.5 128.5,228.5 128.5,229.5C 124.167,229.5 119.833,229.5 115.5,229.5C 115.5,228.5 115.5,227.5 115.5,226.5C 117.167,226.5 118.833,226.5 120.5,226.5C 120.5,222.5 120.5,218.5 120.5,214.5C 116.56,215.234 115.227,213.901 116.5,210.5 Z"/></g>
<g><path style="opacity:0.947" fill="#641e13" d="M 132.5,210.5 C 136.24,210.241 139.906,210.574 143.5,211.5C 145.783,216.326 144.45,219.159 139.5,220C 142.383,222.602 144.05,225.768 144.5,229.5C 143.448,229.649 142.448,229.483 141.5,229C 139.789,226.411 137.955,223.911 136,221.5C 135.503,224.146 135.336,226.813 135.5,229.5C 134.5,229.5 133.5,229.5 132.5,229.5C 132.5,223.167 132.5,216.833 132.5,210.5 Z M 135.5,214.5 C 137.604,214.201 139.604,214.534 141.5,215.5C 140.5,215.833 139.5,216.167 138.5,216.5C 136.97,216.36 135.97,215.693 135.5,214.5 Z"/></g>
<g><path style="opacity:0.836" fill="#651f14" d="M 182.5,210.5 C 183.5,210.5 184.5,210.5 185.5,210.5C 185.5,215.833 185.5,221.167 185.5,226.5C 188.5,226.5 191.5,226.5 194.5,226.5C 194.5,227.5 194.5,228.5 194.5,229.5C 190.5,229.5 186.5,229.5 182.5,229.5C 182.5,223.167 182.5,216.833 182.5,210.5 Z"/></g>
<g><path style="opacity:0.846" fill="#651e13" d="M 67.5,210.5 C 70.5184,210.335 73.5184,210.502 76.5,211C 78.0368,212.11 78.7035,213.61 78.5,215.5C 75.8589,214.737 73.1922,214.57 70.5,215C 73,218.167 75.5,221.333 78,224.5C 78.7203,226.112 78.5536,227.612 77.5,229C 74.1667,229.667 70.8333,229.667 67.5,229C 66.6198,227.644 66.2865,226.144 66.5,224.5C 69.0245,225.812 71.6912,226.312 74.5,226C 72,222.833 69.5,219.667 67,216.5C 66.3224,214.402 66.4891,212.402 67.5,210.5 Z"/></g>
</svg>
