<?xml version="1.0" standalone="no"?>
<!DOCTYPE svg PUBLIC "-//W3C//DTD SVG 20010904//EN"
 "http://www.w3.org/TR/2001/REC-SVG-20010904/DTD/svg10.dtd">
<svg version="1.0" xmlns="http://www.w3.org/2000/svg"
 width="256.000000pt" height="256.000000pt" viewBox="0 0 256.000000 256.000000"
 preserveAspectRatio="xMidYMid meet">
<metadata>
Created by potrace 1.14, written by Peter Selinger 2001-2017
</metadata>
<g transform="translate(0.000000,256.000000) scale(0.100000,-0.100000)"
fill="#000000" stroke="none">
<path d="M1289 2346 c-81 -23 -141 -59 -208 -126 -160 -159 -195 -384 -90
-579 47 -88 129 -168 340 -329 182 -139 222 -198 223 -327 1 -44 -3 -93 -7
-110 l-8 -30 24 35 c44 65 61 127 61 225 1 85 -3 101 -67 288 -74 218 -80 260
-46 333 43 90 125 144 221 145 57 1 86 -8 133 -40 17 -12 33 -21 37 -21 8 0 3
121 -7 175 -20 104 -102 225 -198 288 -114 76 -288 106 -408 73z"/>
<path d="M909 1447 c-22 -27 -34 -33 -69 -35 -88 -6 -130 -62 -130 -171 0 -92
15 -107 105 -110 73 -2 109 12 149 60 26 31 27 34 24 158 l-3 126 -25 3 c-18
2 -32 -6 -51 -31z m-81 -129 c13 -13 -2 -48 -21 -48 -23 0 -37 22 -26 42 11
21 30 23 47 6z"/>
<path d="M1129 1234 c-26 -9 -68 -32 -95 -53 -93 -70 -120 -175 -83 -317 22
-84 18 -98 -31 -107 -29 -6 -66 -48 -57 -64 3 -4 95 -7 204 -7 181 1 204 4
248 23 75 33 109 65 141 128 70 144 18 310 -119 377 -67 33 -147 41 -208 20z"/>
<path d="M811 1076 c-31 -37 -8 -96 37 -96 24 0 52 31 52 58 0 43 -62 70 -89
38z"/>
<path d="M681 437 c-17 -17 -13 -28 35 -89 l45 -58 -35 0 c-20 0 -36 5 -36 10
0 6 -4 10 -10 10 -18 0 -11 -29 9 -40 27 -14 64 -13 86 4 19 13 18 17 -28 74
-26 33 -47 63 -47 66 0 3 14 6 30 6 17 0 30 -4 30 -10 0 -5 5 -10 10 -10 15 0
12 40 -2 41 -61 6 -78 5 -87 -4z"/>
<path d="M882 418 c-41 -31 -44 -39 -44 -103 0 -14 0 -29 1 -34 1 -13 40 -21
47 -10 3 5 11 6 17 2 22 -14 47 -13 47 1 0 8 -7 17 -17 20 -15 6 -15 8 0 19
22 17 26 102 6 122 -13 14 -20 12 -57 -17z m44 -63 c-4 -17 -11 -22 -25 -18
-16 4 -19 1 -15 -15 4 -12 0 -22 -10 -25 -13 -5 -16 1 -16 31 0 30 7 43 33 66
32 29 32 29 35 6 2 -12 1 -32 -2 -45z"/>
<path d="M1177 442 c-22 -4 -12 -22 13 -22 15 0 19 -9 22 -57 3 -56 -12 -91
-33 -78 -5 4 -9 -1 -9 -9 0 -12 11 -15 52 -13 31 1 53 7 56 15 2 7 -5 12 -20
12 -22 0 -23 3 -22 58 2 76 1 72 24 72 11 0 20 6 20 13 0 12 -63 18 -103 9z"/>
<path d="M1336 441 c-2 -3 -3 -44 -2 -91 1 -92 19 -118 24 -36 l3 48 36 -51
c24 -34 40 -48 46 -42 7 7 1 22 -17 46 -16 20 -26 37 -25 38 35 18 45 28 47
47 2 12 -1 27 -6 32 -11 11 -101 18 -106 9z m90 -32 c3 -6 1 -15 -6 -19 -15
-9 -60 -7 -60 3 0 4 0 12 0 17 0 14 57 13 66 -1z"/>
<path d="M1504 436 c-9 -24 1 -171 11 -166 6 3 9 25 8 50 l-2 45 22 -29 c46
-61 64 -79 70 -69 3 5 -7 29 -24 51 -28 38 -29 42 -11 42 35 0 50 46 24 72
-15 15 -92 18 -98 4z m84 -33 c-4 -20 -48 -26 -60 -9 -11 16 1 26 33 26 24 0
30 -4 27 -17z"/>
<path d="M1674 441 c-8 -5 -11 -113 -5 -168 1 -7 21 -12 57 -12 66 0 71 22 6
27 -37 3 -42 6 -42 28 0 17 5 24 20 24 11 0 20 7 20 15 0 8 -3 14 -7 14 -24
-4 -33 4 -33 26 0 23 4 25 46 25 31 0 44 4 42 12 -5 13 -89 20 -104 9z"/>
<path d="M1004 361 c1 -44 5 -83 8 -87 12 -12 69 -14 89 -3 17 9 20 20 18 90
-1 53 -6 79 -13 79 -8 0 -12 -24 -12 -72 l1 -73 -32 -3 -33 -3 0 75 c0 57 -3
76 -13 76 -11 0 -14 -19 -13 -79z"/>
<path d="M1830 351 l0 -88 55 -1 c41 0 55 3 55 14 0 10 -12 14 -42 14 l-43 0
1 75 c1 57 -2 75 -12 75 -11 0 -14 -21 -14 -89z"/>
</g>
</svg>
