<?xml version="1.0" standalone="no"?>
<!DOCTYPE svg PUBLIC "-//W3C//DTD SVG 20010904//EN"
 "http://www.w3.org/TR/2001/REC-SVG-20010904/DTD/svg10.dtd">
<svg version="1.0" xmlns="http://www.w3.org/2000/svg"
 width="1600.000000pt" height="1600.000000pt" viewBox="0 0 1600.000000 1600.000000"
 preserveAspectRatio="xMidYMid meet">
<metadata>
Created by potrace 1.14, written by Peter Selinger 2001-2017
</metadata>
<g transform="translate(0.000000,1600.000000) scale(0.100000,-0.100000)"
fill="#000000" stroke="none">
<path d="M8580 14750 c-502 -39 -981 -207 -1390 -488 -490 -335 -926 -868
-1148 -1404 -208 -500 -273 -1093 -181 -1643 65 -390 203 -757 416 -1113 106
-176 239 -357 343 -466 344 -360 1259 -1120 2000 -1661 225 -165 325 -249 465
-389 342 -344 560 -717 634 -1086 71 -355 47 -735 -70 -1084 -21 -65 -37 -121
-35 -123 16 -17 216 280 300 447 126 248 177 414 220 715 66 466 60 743 -25
1065 -16 63 -199 622 -405 1242 -206 619 -381 1161 -390 1205 -18 92 -20 299
-4 398 26 166 75 315 156 476 254 508 680 802 1244 860 400 40 747 -76 1087
-363 52 -44 96 -78 98 -76 13 13 27 330 22 498 -9 293 -38 496 -107 767 -207
804 -754 1475 -1532 1877 -515 267 -1121 390 -1698 346z"/>
<path d="M5875 9246 c-42 -18 -87 -65 -145 -150 -60 -89 -196 -231 -235 -247
-17 -6 -118 -15 -225 -19 -171 -7 -203 -11 -262 -33 -103 -37 -203 -102 -294
-189 -140 -135 -227 -282 -260 -441 -20 -95 -31 -646 -15 -730 24 -130 125
-273 226 -322 53 -26 59 -27 355 -36 435 -14 563 2 709 88 155 92 370 331 425
472 30 78 37 257 34 876 -3 537 -5 603 -20 630 -22 40 -77 91 -111 104 -39 15
-146 13 -182 -3z m-729 -962 c57 -46 76 -88 72 -161 -3 -51 -9 -69 -34 -99
-46 -57 -88 -76 -161 -72 -51 3 -69 9 -99 34 -57 46 -76 88 -72 161 3 51 9 69
34 99 46 57 88 76 161 72 51 -3 69 -9 99 -34z"/>
<path d="M7370 7790 c-368 -52 -826 -287 -1107 -568 -103 -102 -180 -210 -252
-351 -165 -323 -207 -615 -160 -1106 8 -87 27 -165 89 -380 84 -289 110 -390
110 -434 0 -53 -31 -120 -71 -154 -47 -41 -85 -53 -209 -67 -144 -16 -175 -27
-236 -83 -86 -78 -138 -187 -145 -303 l-3 -49 1209 -3 1210 -2 125 36 c437
125 815 354 1007 609 119 157 311 619 359 860 25 124 25 384 0 515 -45 232
-138 493 -227 635 -288 460 -726 751 -1254 830 -122 18 -363 26 -445 15z"/>
<path d="M5152 6779 c-118 -59 -182 -165 -182 -304 0 -139 64 -245 182 -304
54 -27 71 -31 148 -31 77 0 94 4 148 31 118 59 182 165 182 304 0 139 -64 245
-182 304 -54 27 -71 31 -148 31 -77 0 -94 -4 -148 -31z"/>
<path d="M4330 2771 c-92 -14 -140 -72 -140 -167 0 -40 6 -68 17 -84 9 -14
135 -177 280 -362 145 -185 263 -341 263 -347 0 -16 -382 -15 -398 1 -7 7 -12
24 -12 38 0 61 -86 94 -130 50 -27 -27 -28 -113 -1 -156 54 -89 132 -109 402
-102 168 4 177 5 221 31 70 41 96 124 64 202 -8 19 -120 168 -249 332 -306
390 -308 393 -301 404 9 15 380 11 392 -3 5 -7 15 -32 21 -54 12 -45 25 -54
74 -54 38 0 50 7 66 37 36 68 -25 188 -114 224 -34 14 -383 22 -455 10z"/>
<path d="M5731 2769 c-41 -9 -60 -23 -231 -168 -193 -163 -219 -190 -246 -246
-23 -49 -24 -57 -24 -318 0 -179 4 -276 11 -290 34 -65 89 -98 162 -98 69 0
92 10 165 70 l60 50 25 -62 25 -62 63 -3 c94 -5 167 6 190 29 27 27 24 75 -6
104 -20 21 -34 25 -82 25 -58 0 -58 0 -73 38 l-16 37 82 80 c114 111 116 118
112 447 -3 243 -4 254 -26 289 -12 21 -34 44 -47 53 -33 22 -102 34 -144 25z
m59 -168 c12 -24 13 -376 1 -439 -6 -32 -21 -56 -52 -88 l-43 -44 -27 58 c-27
60 -41 72 -85 72 -32 0 -74 -42 -73 -72 0 -13 13 -54 28 -92 l28 -70 -75 -63
c-41 -35 -82 -63 -91 -61 -14 3 -16 29 -19 218 -2 131 1 229 8 251 8 30 44 66
192 193 99 86 185 156 189 156 5 0 13 -9 19 -19z"/>
<path d="M7355 2773 c-37 -9 -55 -34 -55 -75 0 -68 20 -78 160 -78 l120 0 0
-410 0 -410 -120 0 c-107 0 -122 -2 -140 -20 -28 -28 -27 -90 1 -116 20 -18
40 -19 341 -19 l320 0 19 24 c26 32 24 77 -6 106 -23 24 -30 25 -145 25 l-120
0 0 410 0 410 120 0 c115 0 122 1 145 25 30 29 32 74 6 106 l-19 24 -304 2
c-166 0 -312 -1 -323 -4z"/>
<path d="M8340 2228 c0 -418 3 -557 12 -566 7 -7 33 -12 58 -12 81 0 80 -5 80
318 0 219 3 282 13 282 6 0 89 -109 182 -242 273 -388 248 -358 299 -358 35 0
48 5 60 22 32 45 22 66 -159 324 l-176 249 98 6 c189 11 253 77 253 261 0 104
-17 154 -66 200 -62 58 -85 62 -381 66 l-273 4 0 -554z m541 373 c21 -17 24
-28 24 -90 0 -39 -5 -75 -11 -81 -21 -21 -89 -30 -246 -30 l-158 0 0 110 0
110 184 0 c166 0 186 -2 207 -19z"/>
<path d="M9380 2228 c0 -418 3 -557 12 -566 7 -7 33 -12 58 -12 81 0 80 -5 80
318 0 219 3 282 13 282 6 0 89 -109 182 -242 273 -388 248 -358 299 -358 35 0
48 5 60 22 32 45 22 66 -159 324 l-176 249 98 6 c189 11 253 77 253 261 0 104
-17 154 -66 200 -62 58 -85 62 -381 66 l-273 4 0 -554z m541 373 c21 -17 24
-28 24 -90 0 -39 -5 -75 -11 -81 -21 -21 -89 -30 -246 -30 l-158 0 0 110 0
110 184 0 c166 0 186 -2 207 -19z"/>
<path d="M10410 2210 l0 -571 340 3 c377 3 365 1 377 70 4 30 1 41 -20 62
l-26 26 -261 0 -260 0 0 170 0 170 123 0 c143 0 157 7 157 78 0 63 -20 72
-162 72 l-118 0 0 165 0 165 260 0 261 0 26 26 c21 21 24 32 20 62 -12 69 0
67 -377 70 l-340 3 0 -571z"/>
<path d="M6281 2756 c-8 -10 -11 -143 -9 -494 l3 -480 30 -43 c18 -26 50 -53
80 -68 48 -25 55 -26 245 -26 182 0 198 2 237 22 50 27 100 86 113 133 6 20
10 224 10 486 0 424 -1 452 -18 467 -22 20 -105 23 -120 4 -7 -8 -12 -164 -14
-466 l-3 -453 -24 -19 c-21 -17 -40 -19 -185 -19 -88 0 -166 4 -172 8 -32 21
-34 53 -34 490 0 412 -1 440 -18 455 -23 21 -105 23 -121 3z"/>
<path d="M11462 2758 c-9 -9 -12 -148 -12 -565 l0 -554 340 3 c377 3 365 1
377 70 4 30 1 41 -20 62 l-26 26 -261 0 -260 0 0 468 c0 442 -1 470 -18 485
-22 20 -102 23 -120 5z"/>
</g>
</svg>
